<?xml version="1.0" encoding="utf-8"?>
<!-- Generator: Adobe Illustrator 27.5.0, SVG Export Plug-In . SVG Version: 6.00 Build 0)  -->
<svg version="1.1" id="Layer_1" xmlns="http://www.w3.org/2000/svg" xmlns:xlink="http://www.w3.org/1999/xlink" x="0px" y="0px"
	 viewBox="0 0 1300 1300" style="enable-background:new 0 0 1300 1300;" xml:space="preserve">
<g id="XMLID_2_">
	<g id="XMLID_1_">
		<g id="XMLID_18_">
			
				<rect id="XMLID_44_" x="912.876" y="415.506" transform="matrix(0.7071 -0.7071 0.7071 0.7071 -40.9794 802.3178)" style="fill:#F15B47;" width="70.238" height="70.238"/>
			
				<rect id="XMLID_45_" x="863.21" y="465.172" transform="matrix(0.7071 -0.7071 0.7071 0.7071 -90.6449 781.7465)" style="fill:#D11F5C;" width="70.238" height="70.238"/>
			
				<rect id="XMLID_46_" x="863.21" y="365.841" transform="matrix(0.7071 -0.7071 0.7071 0.7071 -20.4064 752.6539)" style="fill:#F68C59;" width="70.238" height="70.238"/>
			
				<rect id="XMLID_47_" x="813.544" y="514.838" transform="matrix(0.7071 -0.7071 0.7071 0.7071 -140.3107 761.1743)" style="fill:#BB0062;" width="70.238" height="70.238"/>
			
				<rect id="XMLID_48_" x="813.544" y="316.175" transform="matrix(0.7071 -0.7071 0.7071 0.7071 0.1655 702.9872)" style="fill:#FBB040;" width="70.238" height="70.238"/>
			
				<rect id="XMLID_49_" x="763.878" y="564.504" transform="matrix(0.7071 -0.7071 0.7071 0.7071 -189.9765 740.6021)" style="fill:#A4006F;" width="70.238" height="70.238"/>
			
				<rect id="XMLID_52_" x="714.213" y="614.17" transform="matrix(0.7071 -0.7071 0.7071 0.7071 -239.6424 720.0298)" style="fill:#870064;" width="70.238" height="70.238"/>
			
				<rect id="XMLID_55_" x="763.878" y="266.509" transform="matrix(0.7071 -0.7071 0.7071 0.7071 20.7377 653.3214)" style="fill:#FFD400;" width="70.238" height="70.238"/>
			
				<rect id="XMLID_57_" x="366.552" y="365.841" transform="matrix(0.7071 -0.7071 0.7071 0.7071 -165.8746 401.4625)" style="fill:#F68C59;" width="70.238" height="70.238"/>
			
				<rect id="XMLID_58_" x="664.547" y="663.836" transform="matrix(0.7071 -0.7071 0.7071 0.7071 -289.3082 699.4573)" style="fill:#670053;" width="70.238" height="70.238"/>
			
				<rect id="XMLID_59_" x="316.886" y="415.506" transform="matrix(0.7071 -0.7071 0.7071 0.7071 -215.5405 380.8902)" style="fill:#F15B47;" width="70.238" height="70.238"/>
			
				<rect id="XMLID_60_" x="465.883" y="266.509" transform="matrix(0.7071 -0.7071 0.7071 0.7071 -66.543 442.6071)" style="fill:#FFD400;" width="70.238" height="70.238"/>
			
				<rect id="XMLID_61_" x="366.552" y="465.172" transform="matrix(0.7071 -0.7071 0.7071 0.7071 -236.1127 430.5562)" style="fill:#D11F5C;" width="70.238" height="70.238"/>
			
				<rect id="XMLID_63_" x="416.218" y="316.175" transform="matrix(0.7071 -0.7071 0.7071 0.7071 -116.2088 422.0348)" style="fill:#FBB040;" width="70.238" height="70.238"/>
			
				<rect id="XMLID_64_" x="614.881" y="713.501" transform="matrix(0.7071 -0.7071 0.7071 0.7071 -338.974 678.8844)" style="fill:#3B0256;" width="70.238" height="70.238"/>
			
				<rect id="XMLID_65_" x="565.215" y="663.836" transform="matrix(0.7071 -0.7071 0.7071 0.7071 -318.4017 629.2185)" style="fill:#670053;" width="70.238" height="70.238"/>
			
				<rect id="XMLID_66_" x="515.549" y="614.17" transform="matrix(0.7071 -0.7071 0.7071 0.7071 -297.8296 579.5544)" style="fill:#870064;" width="70.238" height="70.238"/>
			
				<rect id="XMLID_67_" x="416.218" y="514.838" transform="matrix(0.7071 -0.7071 0.7071 0.7071 -256.685 480.222)" style="fill:#BB0062;" width="70.238" height="70.238"/>
			
				<rect id="XMLID_68_" x="465.883" y="564.504" transform="matrix(0.7071 -0.7071 0.7071 0.7071 -277.2572 529.8878)" style="fill:#A4006F;" width="70.238" height="70.238"/>
		</g>
		
			<rect id="XMLID_19_" x="714.213" y="514.838" transform="matrix(0.7071 -0.7071 0.7071 0.7071 -169.4041 690.9371)" style="fill:#BB0062;" width="70.238" height="70.238"/>
		
			<rect id="XMLID_20_" x="614.881" y="614.17" transform="matrix(0.7071 -0.7071 0.7071 0.7071 -268.7359 649.7909)" style="fill:#870064;" width="70.238" height="70.238"/>
		
			<rect id="XMLID_21_" x="664.547" y="564.504" transform="matrix(0.7071 -0.7071 0.7071 0.7071 -219.0701 670.3638)" style="fill:#A4006F;" width="70.238" height="70.238"/>
		
			<rect id="XMLID_22_" x="565.215" y="564.504" transform="matrix(0.7071 -0.7071 0.7071 0.7071 -248.1637 600.125)" style="fill:#A4006F;" width="70.238" height="70.238"/>
		
			<rect id="XMLID_23_" x="515.549" y="514.838" transform="matrix(0.7071 -0.7071 0.7071 0.7071 -227.5914 550.4608)" style="fill:#BB0062;" width="70.238" height="70.238"/>
		
			<rect id="XMLID_24_" x="465.883" y="465.172" transform="matrix(0.7071 -0.7071 0.7071 0.7071 -207.0191 500.7942)" style="fill:#D11F5C;" width="70.238" height="70.238"/>
		
			<rect id="XMLID_25_" x="813.544" y="415.506" transform="matrix(0.7071 -0.7071 0.7071 0.7071 -70.0729 732.0798)" style="fill:#F15B47;" width="70.238" height="70.238"/>
		
			<rect id="XMLID_26_" x="714.213" y="316.175" transform="matrix(0.7071 -0.7071 0.7071 0.7071 -28.9278 632.7499)" style="fill:#FBB040;" width="70.238" height="70.238"/>
		
			<rect id="XMLID_28_" x="763.878" y="465.172" transform="matrix(0.7071 -0.7071 0.7071 0.7071 -119.7387 711.5075)" style="fill:#D11F5C;" width="70.238" height="70.238"/>
		
			<rect id="XMLID_29_" x="763.878" y="365.841" transform="matrix(0.7071 -0.7071 0.7071 0.7071 -49.5004 682.4149)" style="fill:#F68C59;" width="70.238" height="70.238"/>
		
			<rect id="XMLID_30_" x="416.218" y="415.506" transform="matrix(0.7071 -0.7071 0.7071 0.7071 -186.4469 451.1277)" style="fill:#F15B47;" width="70.238" height="70.238"/>
		
			<rect id="XMLID_31_" x="664.547" y="365.841" transform="matrix(0.7071 -0.7071 0.7071 0.7071 -78.5941 612.176)" style="fill:#F68C59;" width="70.238" height="70.238"/>
		
			<rect id="XMLID_32_" x="614.881" y="514.838" transform="matrix(0.7071 -0.7071 0.7071 0.7071 -198.4979 620.6974)" style="fill:#BB0062;" width="70.238" height="70.238"/>
		
			<rect id="XMLID_33_" x="565.215" y="465.172" transform="matrix(0.7071 -0.7071 0.7071 0.7071 -177.9256 571.0315)" style="fill:#D11F5C;" width="70.238" height="70.238"/>
		
			<rect id="XMLID_34_" x="515.549" y="415.506" transform="matrix(0.7071 -0.7071 0.7071 0.7071 -157.3533 521.3665)" style="fill:#F15B47;" width="70.238" height="70.238"/>
		
			<rect id="XMLID_35_" x="565.215" y="365.841" transform="matrix(0.7071 -0.7071 0.7071 0.7071 -107.6876 541.9381)" style="fill:#F68C59;" width="70.238" height="70.238"/>
		
			<rect id="XMLID_36_" x="664.547" y="465.172" transform="matrix(0.7071 -0.7071 0.7071 0.7071 -148.8322 641.2693)" style="fill:#D11F5C;" width="70.238" height="70.238"/>
		
			<rect id="XMLID_37_" x="614.881" y="415.506" transform="matrix(0.7071 -0.7071 0.7071 0.7071 -128.2597 591.6047)" style="fill:#F15B47;" width="70.238" height="70.238"/>
		
			<rect id="XMLID_40_" x="465.883" y="365.841" transform="matrix(0.7071 -0.7071 0.7071 0.7071 -136.7811 471.7)" style="fill:#F68C59;" width="70.238" height="70.238"/>
		
			<rect id="XMLID_41_" x="714.213" y="415.506" transform="matrix(0.7071 -0.7071 0.7071 0.7071 -99.1662 661.8427)" style="fill:#F15B47;" width="70.238" height="70.238"/>
		
			<rect id="XMLID_43_" x="515.549" y="316.175" transform="matrix(0.7071 -0.7071 0.7071 0.7071 -87.1151 492.2735)" style="fill:#FBB040;" width="70.238" height="70.238"/>
	</g>
	<g id="XMLID_4_">
		<path id="XMLID_83_" style="fill:#47403D;" d="M249.231,946.865c-1.825,0-2.736-0.842-2.736-2.525V832.177
			c0-0.7,0.244-1.296,0.737-1.789c0.49-0.489,1.157-0.736,1.999-0.736h14.941c0.7,0,1.295,0.247,1.788,0.736
			c0.49,0.493,0.737,1.089,0.737,1.789v94.696h45.033c0.7,0,1.295,0.246,1.789,0.736c0.49,0.493,0.737,1.088,0.737,1.789v14.94
			c0,0.704-0.247,1.299-0.737,1.789c-0.493,0.493-1.088,0.736-1.789,0.736H249.231z"/>
		<path id="XMLID_85_" style="fill:#47403D;" d="M311.52,887.943c0-8.135,1.473-15.815,4.419-23.043
			c2.946-7.224,7.014-13.468,12.206-18.729c5.189-5.261,11.327-9.434,18.413-12.521c7.083-3.084,14.694-4.629,22.832-4.629
			c8.135,0,15.783,1.545,22.938,4.629c7.155,3.088,13.363,7.261,18.624,12.521c5.261,5.261,9.397,11.505,12.416,18.729
			c3.015,7.228,4.524,14.908,4.524,23.043c0,8.279-1.509,15.993-4.524,23.147c-3.019,7.155-7.155,13.399-12.416,18.729
			c-5.261,5.333-11.469,9.542-18.624,12.626c-7.155,3.087-14.803,4.629-22.938,4.629c-8.138,0-15.749-1.542-22.832-4.629
			c-7.086-3.084-13.225-7.293-18.413-12.626c-5.192-5.33-9.259-11.574-12.206-18.729C312.993,903.936,311.52,896.222,311.52,887.943
			z M331.722,888.153c0,5.334,0.98,10.348,2.946,15.047c1.963,4.701,4.629,8.769,7.997,12.205c3.367,3.44,7.329,6.139,11.89,8.102
			c4.557,1.966,9.502,2.946,14.835,2.946c5.33,0,10.344-0.98,15.046-2.946c4.699-1.963,8.766-4.662,12.205-8.102
			c3.436-3.436,6.136-7.504,8.102-12.205c1.963-4.699,2.946-9.713,2.946-15.047c0-5.33-0.983-10.344-2.946-15.046
			c-1.966-4.698-4.666-8.802-8.102-12.311c-3.439-3.505-7.506-6.277-12.205-8.313c-4.702-2.031-9.716-3.051-15.046-3.051
			c-5.333,0-10.278,1.02-14.835,3.051c-4.561,2.035-8.523,4.808-11.89,8.313c-3.367,3.509-6.034,7.612-7.997,12.311
			C332.702,877.809,331.722,882.823,331.722,888.153z"/>
		<path id="XMLID_88_" style="fill:#47403D;" d="M480.079,895.544v-14.786c0-1.802,0.842-2.706,2.525-2.706h59.975
			c0.7,0,1.295,0.243,1.789,0.729c0.49,0.487,0.736,1.145,0.736,1.977v14.786c0,0.697-0.247,1.286-0.736,1.772
			c-0.493,0.486-1.088,0.727-1.789,0.727h-5.051v46.296c0,1.684-0.914,2.525-2.735,2.525h-14.941c-1.684,0-2.525-0.842-2.525-2.525
			v-3.577c-4.071,1.966-8.279,3.508-12.626,4.63c-4.35,1.124-8.979,1.683-13.889,1.683c-8.138,0-15.749-1.542-22.832-4.629
			c-7.086-3.084-13.225-7.293-18.413-12.626c-5.192-5.33-9.259-11.574-12.206-18.729c-2.946-7.154-4.419-14.868-4.419-23.147
			c0-8.135,1.473-15.815,4.419-23.043c2.946-7.224,7.014-13.468,12.206-18.729c5.188-5.261,11.327-9.434,18.413-12.521
			c7.083-3.084,14.694-4.629,22.832-4.629c8.838,0,16.973,1.756,24.411,5.261c7.435,3.508,13.816,8.207,19.15,14.099
			c0.979,1.404,0.979,2.667,0,3.788l-10.732,10.311c-1.545,1.124-2.877,1.124-3.998,0l-0.21-0.211
			c-3.509-4.067-7.717-7.224-12.626-9.469c-4.912-2.243-10.242-3.367-15.993-3.367c-5.333,0-10.278,1.02-14.835,3.051
			c-4.561,2.035-8.523,4.808-11.89,8.313c-3.367,3.509-6.034,7.612-7.996,12.311c-1.966,4.702-2.946,9.716-2.946,15.046
			c0,5.334,0.98,10.348,2.946,15.047c1.963,4.701,4.629,8.769,7.996,12.205c3.367,3.44,7.329,6.139,11.89,8.102
			c4.557,1.966,9.502,2.946,14.835,2.946c5.189,0,10.029-0.911,14.52-2.736c4.488-1.821,8.487-4.419,11.995-7.786v-17.887h-34.722
			C480.92,898.043,480.079,897.211,480.079,895.544z"/>
		<path id="XMLID_90_" style="fill:#47403D;" d="M550.152,887.943c0-8.135,1.473-15.815,4.419-23.043
			c2.946-7.224,7.014-13.468,12.206-18.729c5.188-5.261,11.327-9.434,18.413-12.521c7.082-3.084,14.694-4.629,22.832-4.629
			c8.135,0,15.783,1.545,22.938,4.629c7.155,3.088,13.363,7.261,18.623,12.521c5.261,5.261,9.398,11.505,12.416,18.729
			c3.015,7.228,4.524,14.908,4.524,23.043c0,8.279-1.509,15.993-4.524,23.147c-3.018,7.155-7.155,13.399-12.416,18.729
			c-5.261,5.333-11.469,9.542-18.623,12.626c-7.155,3.087-14.803,4.629-22.938,4.629c-8.138,0-15.75-1.542-22.832-4.629
			c-7.086-3.084-13.225-7.293-18.413-12.626c-5.192-5.33-9.259-11.574-12.206-18.729
			C551.625,903.936,550.152,896.222,550.152,887.943z M570.354,888.153c0,5.334,0.98,10.348,2.946,15.047
			c1.963,4.701,4.629,8.769,7.997,12.205c3.367,3.44,7.329,6.139,11.89,8.102c4.557,1.966,9.503,2.946,14.836,2.946
			c5.33,0,10.344-0.98,15.046-2.946c4.699-1.963,8.766-4.662,12.205-8.102c3.436-3.436,6.136-7.504,8.102-12.205
			c1.963-4.699,2.946-9.713,2.946-15.047c0-5.33-0.983-10.344-2.946-15.046c-1.966-4.698-4.666-8.802-8.102-12.311
			c-3.439-3.505-7.506-6.277-12.205-8.313c-4.702-2.031-9.716-3.051-15.046-3.051c-5.333,0-10.278,1.02-14.836,3.051
			c-4.56,2.035-8.523,4.808-11.89,8.313c-3.367,3.509-6.034,7.612-7.997,12.311C571.333,877.809,570.354,882.823,570.354,888.153z"
			/>
		<path id="XMLID_93_" style="fill:#47403D;" d="M712.185,847.117v-14.94c0-1.684,0.842-2.525,2.525-2.525h71.759
			c0.7,0,1.331,0.211,1.894,0.631c0.56,0.421,0.842,1.053,0.842,1.895v14.94c0,0.704-0.282,1.299-0.842,1.789
			c-0.563,0.493-1.193,0.736-1.894,0.736h-25.674v94.696c0,1.684-0.852,2.525-2.551,2.525h-15.099c-1.704,0-2.552-0.842-2.552-2.525
			v-94.696H714.71C713.026,849.643,712.185,848.801,712.185,847.117z"/>
		<path id="XMLID_95_" style="fill:#47403D;" d="M796.568,944.339V832.177c0-0.7,0.243-1.296,0.736-1.789
			c0.49-0.489,1.157-0.736,1.999-0.736h67.55c0.701,0,1.296,0.211,1.789,0.631c0.49,0.421,0.736,1.053,0.736,1.895v14.94
			c0,0.704-0.246,1.299-0.736,1.789c-0.493,0.493-1.088,0.736-1.789,0.736h-50.083v28.409h50.083c0.701,0,1.296,0.243,1.789,0.729
			c0.49,0.487,0.736,1.145,0.736,1.977v14.786c0,0.697-0.246,1.286-0.736,1.772c-0.493,0.486-1.088,0.727-1.789,0.727h-50.083v28.83
			h50.083c0.701,0,1.296,0.246,1.789,0.736c0.49,0.493,0.736,1.088,0.736,1.789v14.94c0,0.704-0.246,1.299-0.736,1.789
			c-0.493,0.493-1.088,0.736-1.789,0.736h-67.55C797.479,946.865,796.568,946.023,796.568,944.339z"/>
		<path id="XMLID_97_" style="fill:#47403D;" d="M879.688,946.865c-1.683,0-2.524-0.842-2.524-2.525l34.932-56.187l-34.932-55.976
			c0-0.7,0.243-1.296,0.736-1.789c0.489-0.489,1.085-0.736,1.788-0.736h18.309c0.842,0,1.506,0.283,1.999,0.842
			c0.49,0.563,0.874,1.124,1.157,1.684l23.148,37.036l23.147-37.036c0.279-0.56,0.664-1.121,1.157-1.684
			c0.49-0.559,1.157-0.842,1.999-0.842h18.097c0.842,0,1.508,0.247,2,0.736c0.49,0.493,0.736,1.089,0.736,1.789l-35.352,55.976
			l35.352,56.187c0,1.684-0.914,2.525-2.736,2.525h-18.097c-0.842,0-1.473-0.243-1.894-0.736c-0.421-0.49-0.842-1.085-1.263-1.789
			l-23.147-36.826l-23.148,36.826c-0.421,0.704-0.842,1.299-1.263,1.789c-0.421,0.493-1.052,0.736-1.893,0.736H879.688z"/>
		<path id="XMLID_99_" style="fill:#47403D;" d="M976.485,847.117v-14.94c0-1.684,0.842-2.525,2.525-2.525h71.759
			c0.7,0,1.331,0.211,1.894,0.631c0.559,0.421,0.842,1.053,0.842,1.895v14.94c0,0.704-0.283,1.299-0.842,1.789
			c-0.563,0.493-1.193,0.736-1.894,0.736h-25.674v94.696c0,1.684-0.852,2.525-2.552,2.525h-15.099c-1.703,0-2.551-0.842-2.551-2.525
			v-94.696h-25.884C977.327,849.643,976.485,848.801,976.485,847.117z"/>
	</g>
	<g id="XMLID_3_">
		<path id="XMLID_5_" style="fill:#A9A3A1;" d="M252.624,1023.229v10.033h-4.469v-66.585h4.469v30.465
			c4.013-6.111,9.942-11.493,19.155-11.493c11.219,0,22.621,9.03,22.621,24.172v0.182c0,15.141-11.402,24.354-22.621,24.354
			C262.475,1034.356,256.455,1029.066,252.624,1023.229z M289.565,1010.185v-0.182c0-12.222-8.483-20.066-18.243-20.066
			c-9.668,0-18.972,8.118-18.972,19.975v0.182c0,11.949,9.304,19.976,18.972,19.976
			C281.447,1030.07,289.565,1022.681,289.565,1010.185z"/>
		<path id="XMLID_8_" style="fill:#A9A3A1;" d="M314.285,1015.202v-28.458h4.469v27.638c0,9.577,5.382,15.871,14.777,15.871
			c9.121,0,16.144-6.932,16.144-16.601v-26.908h4.47v46.519h-4.47v-8.665c-3.101,5.473-8.3,9.76-16.783,9.76
			C321.126,1034.356,314.285,1026.329,314.285,1015.202z"/>
		<path id="XMLID_10_" style="fill:#A9A3A1;" d="M373.94,1027.424l2.645-3.557c5.108,3.922,10.763,6.111,16.692,6.111
			c6.293,0,11.219-3.466,11.219-8.847v-0.182c0-5.472-5.838-7.48-12.314-9.304c-7.571-2.189-15.962-4.47-15.962-12.77v-0.182
			c0-7.48,6.294-12.861,15.324-12.861c5.564,0,11.857,2.006,16.509,5.108l-2.371,3.739c-4.287-2.828-9.395-4.652-14.32-4.652
			c-6.385,0-10.58,3.466-10.58,8.118v0.182c0,5.199,6.293,7.114,12.952,9.031c7.48,2.097,15.324,4.834,15.324,13.043v0.182
			c0,8.3-7.115,13.591-16.053,13.591C386.254,1034.174,378.865,1031.438,373.94,1027.424z"/>
		<path id="XMLID_12_" style="fill:#A9A3A1;" d="M430.219,968.501h5.564v6.112h-5.564V968.501z M430.767,986.743h4.47v46.519h-4.47
			V986.743z"/>
		<path id="XMLID_15_" style="fill:#A9A3A1;" d="M459.681,986.743h4.469v8.665c3.101-5.472,8.301-9.76,16.783-9.76
			c11.766,0,18.607,8.027,18.607,19.155v28.459h-4.47v-27.637c0-9.578-5.381-15.872-14.776-15.872
			c-9.122,0-16.145,6.932-16.145,16.601v26.908h-4.469V986.743z"/>
		<path id="XMLID_17_" style="fill:#A9A3A1;" d="M519.244,1010.094v-0.182c0-13.499,9.486-24.263,22.073-24.263
			c13.043,0,21.344,10.581,21.344,24.354c0,0.821,0,1.095-0.091,1.824h-38.583c0.821,11.584,9.122,18.334,18.243,18.334
			c7.206,0,12.131-3.193,15.962-7.297l3.101,2.737c-4.743,5.108-10.307,8.756-19.246,8.756
			C529.825,1034.356,519.244,1024.597,519.244,1010.094z M557.827,1007.813c-0.638-9.395-6.02-18.06-16.692-18.06
			c-9.212,0-16.327,7.754-17.148,18.06H557.827z"/>
		<path id="XMLID_39_" style="fill:#A9A3A1;" d="M578.535,1027.424l2.645-3.557c5.108,3.922,10.763,6.111,16.692,6.111
			c6.293,0,11.219-3.466,11.219-8.847v-0.182c0-5.472-5.838-7.48-12.313-9.304c-7.571-2.189-15.962-4.47-15.962-12.77v-0.182
			c0-7.48,6.294-12.861,15.324-12.861c5.564,0,11.857,2.006,16.509,5.108l-2.371,3.739c-4.287-2.828-9.395-4.652-14.32-4.652
			c-6.385,0-10.58,3.466-10.58,8.118v0.182c0,5.199,6.293,7.114,12.952,9.031c7.48,2.097,15.324,4.834,15.324,13.043v0.182
			c0,8.3-7.115,13.591-16.053,13.591C590.848,1034.174,583.46,1031.438,578.535,1027.424z"/>
		<path id="XMLID_50_" style="fill:#A9A3A1;" d="M629.798,1027.424l2.645-3.557c5.108,3.922,10.763,6.111,16.692,6.111
			c6.293,0,11.219-3.466,11.219-8.847v-0.182c0-5.472-5.838-7.48-12.314-9.304c-7.571-2.189-15.962-4.47-15.962-12.77v-0.182
			c0-7.48,6.294-12.861,15.324-12.861c5.564,0,11.857,2.006,16.509,5.108l-2.371,3.739c-4.287-2.828-9.395-4.652-14.32-4.652
			c-6.385,0-10.581,3.466-10.581,8.118v0.182c0,5.199,6.293,7.114,12.952,9.031c7.48,2.097,15.324,4.834,15.324,13.043v0.182
			c0,8.3-7.115,13.591-16.053,13.591C642.112,1034.174,634.724,1031.438,629.798,1027.424z"/>
		<path id="XMLID_53_" style="fill:#A9A3A1;" d="M722.654,1021.313v-30.466h-6.749v-4.104h6.749v-14.867h4.47v14.867h16.327v4.104
			h-16.327v30.009c0,6.658,3.922,9.03,9.304,9.03c2.28,0,4.196-0.456,6.841-1.642v4.197c-2.371,1.094-4.652,1.641-7.571,1.641
			C728.491,1034.082,722.654,1030.161,722.654,1021.313z"/>
		<path id="XMLID_56_" style="fill:#A9A3A1;" d="M759.687,1019.763v-0.182c0-9.669,8.3-15.141,20.341-15.141
			c6.476,0,10.946,0.82,15.414,2.006v-2.006c0-9.395-5.745-14.23-15.323-14.23c-5.654,0-10.306,1.551-14.594,3.74l-1.642-3.922
			c5.108-2.371,10.125-4.013,16.51-4.013c6.293,0,11.31,1.733,14.685,5.108c3.101,3.101,4.743,7.388,4.743,13.134v29.006h-4.379
			v-7.753c-3.192,4.469-8.938,8.847-17.786,8.847C768.991,1034.356,759.687,1029.43,759.687,1019.763z M795.534,1015.84v-5.29
			c-3.922-1.004-9.122-2.097-15.78-2.097c-9.851,0-15.324,4.378-15.324,10.854v0.182c0,6.75,6.385,10.673,13.499,10.673
			C787.416,1030.161,795.534,1024.323,795.534,1015.84z"/>
		<path id="XMLID_70_" style="fill:#A9A3A1;" d="M821.804,1040.923l2.646-3.648c5.563,4.287,11.948,6.567,18.789,6.567
			c10.672,0,18.242-6.111,18.242-18.06v-6.749c-4.013,5.745-10.215,10.763-19.428,10.763c-11.219,0-22.347-8.574-22.347-21.89
			v-0.183c0-13.408,11.128-22.073,22.347-22.073c9.304,0,15.598,4.926,19.428,10.398v-9.304h4.47v39.313
			c0,6.749-2.189,12.039-5.929,15.78c-4.014,4.013-10.034,6.202-16.874,6.202C835.395,1048.038,828.189,1045.666,821.804,1040.923z
			 M861.756,1007.813v-0.182c0-10.763-9.578-17.695-19.246-17.695c-9.76,0-17.969,6.749-17.969,17.604v0.182
			c0,10.49,8.391,17.787,17.969,17.787C852.178,1025.509,861.756,1018.395,861.756,1007.813z"/>
		<path id="XMLID_73_" style="fill:#A9A3A1;" d="M890.397,966.677h4.47v66.585h-4.47V966.677z"/>
		<path id="XMLID_75_" style="fill:#A9A3A1;" d="M919.403,968.501h5.564v6.112h-5.564V968.501z M919.95,986.743h4.47v46.519h-4.47
			V986.743z"/>
		<path id="XMLID_78_" style="fill:#A9A3A1;" d="M948.865,986.743h4.47v8.665c3.101-5.472,8.3-9.76,16.782-9.76
			c11.767,0,18.607,8.027,18.607,19.155v28.459h-4.469v-27.637c0-9.578-5.382-15.872-14.777-15.872
			c-9.121,0-16.144,6.932-16.144,16.601v26.908h-4.47V986.743z"/>
		<path id="XMLID_80_" style="fill:#A9A3A1;" d="M1008.429,1010.094v-0.182c0-13.499,9.486-24.263,22.073-24.263
			c13.043,0,21.343,10.581,21.343,24.354c0,0.821,0,1.095-0.091,1.824h-38.583c0.821,11.584,9.122,18.334,18.242,18.334
			c7.206,0,12.131-3.193,15.963-7.297l3.101,2.737c-4.743,5.108-10.307,8.756-19.246,8.756
			C1019.009,1034.356,1008.429,1024.597,1008.429,1010.094z M1047.011,1007.813c-0.638-9.395-6.02-18.06-16.691-18.06
			c-9.213,0-16.327,7.754-17.148,18.06H1047.011z"/>
	</g>
</g>
</svg>
